<?xml version="1.0" encoding="UTF-8"?>
<svg width="512" height="512" viewBox="0 0 512 512" xmlns="http://www.w3.org/2000/svg">
  <!-- Fondo con gradiente -->
  <defs>
    <linearGradient id="backgroundGradient" x1="0%" y1="0%" x2="100%" y2="100%">
      <stop offset="0%" style="stop-color:#FFB6C1;stop-opacity:1" />
      <stop offset="50%" style="stop-color:#FFC0CB;stop-opacity:1" />
      <stop offset="100%" style="stop-color:#FFE4E1;stop-opacity:1" />
    </linearGradient>
    
    <linearGradient id="sakuraGradient" x1="0%" y1="0%" x2="100%" y2="100%">
      <stop offset="0%" style="stop-color:#FF69B4;stop-opacity:1" />
      <stop offset="50%" style="stop-color:#FF1493;stop-opacity:1" />
      <stop offset="100%" style="stop-color:#DC143C;stop-opacity:1" />
    </linearGradient>
  </defs>
  
  <!-- Fondo redondeado -->
  <rect width="512" height="512" rx="120" ry="120" fill="url(#backgroundGradient)" />
  
  <!-- Flor de Sakura principal (más grande para el ícono adaptativo) -->
  <g transform="translate(256, 256)">
    <!-- Pétalos de la flor -->
    <g>
      <!-- Pétalo superior -->
      <ellipse cx="0" cy="-80" rx="35" ry="60" fill="url(#sakuraGradient)" transform="rotate(0)" />
      <!-- Pétalo derecho -->
      <ellipse cx="57" cy="-57" rx="35" ry="60" fill="url(#sakuraGradient)" transform="rotate(45)" />
      <!-- Pétalo inferior derecho -->
      <ellipse cx="57" cy="57" rx="35" ry="60" fill="url(#sakuraGradient)" transform="rotate(90)" />
      <!-- Pétalo inferior izquierdo -->
      <ellipse cx="-57" cy="57" rx="35" ry="60" fill="url(#sakuraGradient)" transform="rotate(135)" />
      <!-- Pétalo izquierdo -->
      <ellipse cx="-57" cy="-57" rx="35" ry="60" fill="url(#sakuraGradient)" transform="rotate(180)" />
    </g>
    
    <!-- Centro de la flor -->
    <circle cx="0" cy="0" r="25" fill="#FFD700" />
    <circle cx="0" cy="0" r="18" fill="#FFA500" />
  </g>
  
  <!-- Elementos decorativos sutiles -->
  <g transform="translate(256, 380)">
    <!-- Lista pequeña -->
    <rect x="-40" y="-15" width="80" height="30" rx="4" ry="4" fill="white" stroke="rgba(0,0,0,0.1)" stroke-width="1"/>
    <line x1="-30" y1="-5" x2="20" y2="-5" stroke="#666" stroke-width="2" stroke-linecap="round"/>
    <line x1="-30" y1="5" x2="30" y2="5" stroke="#666" stroke-width="2" stroke-linecap="round"/>
    
    <!-- Checkmark -->
    <g transform="translate(-35, -8)">
      <path d="M0,0 L6,6 L12,0" stroke="#32CD32" stroke-width="2" fill="none" stroke-linecap="round" stroke-linejoin="round"/>
    </g>
  </g>
</svg>

